<svg id="react" style="enable-background:new 0 0 100 100;" version="1.1" viewBox="0 0 100 100" x="0px" xmlns="http://www.w3.org/2000/svg" xmlns:xlink="http://www.w3.org/1999/xlink" y="0px">
<path d="M43.1,82.4l5.9-47.1c0.1-1-0.7-1.9-1.7-1.9l-0.1,0l-5.9,0c-1,0-1.8,0.8-1.8,1.8l0.1,0l2.7,21.3L39.9,79
 c-0.1,1,0.7,1.9,1.7,1.9l0.1,0l5.9,0c1,0,1.8-0.8,1.8-1.8l0,0L43.1,82.4z" fill="#61DAFB"></path>
<path d="M56.9,33.5l-5.9,47.1l-5.9-47.1c-0.1-1,0.7-1.9,1.7-1.9l0.1,0l5.9,0c1,0,1.8,0.8,1.8,1.8l0,0L56.9,33.5z" fill="#61DAFB"></path>
<path d="M76.4,38.3l4.2,3.4c0.8,0.7,1,1.9,0.3,2.7l0,0c-0.7,0.8-1.9,1-2.7,0.3l-4.2-3.4c-0.8-0.7-2-0.5-2.7,0.3
 c-0.7,0.8-0.5,2,0.3,2.7l0,0l4.2,3.4c1.9,1.5,4.6,1.1,6.1-0.8c1.5-1.9,1.1-4.6-0.8-6.1l0,0L76.4,38.3z" fill="#61DAFB"></path>
<path d="M83.7,52.8c1.9-1.5,2.3-4.2,0.8-6.1l-4.2-3.4c-1.5-1.9-4.2-2.3-6.1-0.8c-1.9,1.5-2.3,4.2-0.8,6.1l4.2,3.4
 C79,53.9,81.8,54.3,83.7,52.8L83.7,52.8z" fill="#61DAFB"></path>
<path d="M19.6,40.8l4.2-3.4c1.5-1.2,1.9-3.4,0.9-5l0,0l-3.4-4.2c-1.2-1.5-3.4-1.9-5-0.9c-1.5,1.2-1.9,3.4-0.9,5
 l3.4,4.2C19.6,38.2,19.6,39.7,19.6,40.8z" fill="#61DAFB"></path>
<path d="M10.2,59.5l4.2-3.4c0.8-0.7,1-1.9,0.3-2.7c-0.7-0.8-1.9-1-2.7-0.3l0,0l-4.2,3.4c-0.8,0.7-1,1.9-0.3,2.7
 c0.7,0.8,1.9,1,2.7,0.3l0,0L10.2,59.5z" fill="#61DAFB"></path>
<path d="M80.1,58.6l-4.2,3.4c-0.8,0.7-1,1.9-0.3,2.7l0,0c0.7,0.8,1.9,1,2.7,0.3l4.2-3.4c0.8-0.7,1-1.9,0.3-2.7l0,0
 C82.2,57.8,80.9,57.9,80.1,58.6z" fill="#61DAFB"></path>
<path d="M10.2,59.5l3.3,4.1c1.2,1.5,3.4,1.9,5,0.9c1.5-1.2,1.9-3.4,0.9-5l0,0l-3.4-4.2c-1.2-1.5-3.4-1.9-5-0.9
 C9.4,55.1,9,57.3,10.2,59.5L10.2,59.5z" fill="#61DAFB"></path>
<path d="M16.3,38.3l-4.2-3.4c-1.9-1.5-4.6-1.1-6.1,0.8l0,0c-1.5,1.9-1.1,4.6,0.8,6.1l4.2,3.4c0.8,0.7,2,0.5,2.7-0.3
 c0.7-0.8,0.5-2-0.3-2.7l0,0l-4.2-3.4c-0.3-0.2-0.4-0.7-0.2-1l0,0c0.2-0.3,0.7-0.4,1-0.2l4.2,3.4c0.8,0.7,2,0.5,2.7-0.3
 C17.3,40.1,17.1,38.9,16.3,38.3L16.3,38.3z" fill="#61DAFB"></path>
</svg>
